<svg width="33" height="26" viewBox="0 0 33 26" fill="none" xmlns="http://www.w3.org/2000/svg">
<path d="M28.8886 6.44415C28.9079 6.72469 28.9079 7.00524 28.9079 7.28836C28.9079 15.9154 22.3531 25.865 10.3673 25.865V25.8598C6.82665 25.865 3.35955 24.8488 0.378906 22.9328C0.893745 22.9949 1.41116 23.0259 1.92987 23.0272C4.86407 23.0298 7.71439 22.0434 10.0228 20.227C7.23439 20.174 4.78923 18.3524 3.93503 15.693C4.91181 15.8818 5.91826 15.843 6.87697 15.5805C3.83697 14.9652 1.64987 12.289 1.64987 9.18106C1.64987 9.15262 1.64987 9.12547 1.64987 9.09832C2.55568 9.60381 3.56987 9.88436 4.60729 9.91539C1.74407 7.99813 0.861487 4.18171 2.59052 1.19787C5.89891 5.27673 10.7802 7.75637 16.0202 8.01881C15.495 5.7512 16.2125 3.37498 17.9054 1.78093C20.5299 -0.69095 24.6576 -0.564253 27.1247 2.06406C28.5841 1.77576 29.9828 1.23924 31.2628 0.479056C30.7763 1.99037 29.7583 3.27414 28.3983 4.08992C29.6899 3.93736 30.9518 3.59089 32.1402 3.06212C31.2654 4.37563 30.1634 5.51978 28.8886 6.44415Z" fill="#2A2A2B"/>
</svg>
