<svg width="34" height="34" viewBox="0 0 34 34" fill="none" xmlns="http://www.w3.org/2000/svg">
<path d="M29.667 10.0151C30.8081 12.0971 31.4574 14.4864 31.4574 17.028C31.4574 22.4211 28.5348 27.1295 24.1888 29.6633L28.6536 16.7541C29.4876 14.6686 29.7653 13.0011 29.7653 11.5183C29.7653 10.9801 29.7298 10.4807 29.667 10.0151ZM18.8541 10.1742C19.7342 10.128 20.5272 10.0354 20.5272 10.0354C21.3148 9.94213 21.2219 8.78455 20.4339 8.83066C20.4339 8.83066 18.0661 9.01648 16.5376 9.01648C15.1013 9.01648 12.6877 8.83066 12.6877 8.83066C11.8993 8.78455 11.8069 9.98876 12.5949 10.0354C12.5949 10.0354 13.3406 10.128 14.1283 10.1742L16.4056 16.4145L13.2061 26.0087L7.88307 10.1742C8.76381 10.128 9.55595 10.0354 9.55595 10.0354C10.3431 9.94213 10.2502 8.78455 9.46253 8.83066C9.46253 8.83066 7.09523 9.01648 5.56653 9.01648C5.29227 9.01648 4.96898 9.00977 4.62574 8.99876C7.23959 5.0305 11.7323 2.40994 16.8395 2.40994C20.645 2.40994 24.1102 3.865 26.7108 6.24795C26.6478 6.24417 26.5864 6.23625 26.5215 6.23625C25.0856 6.23625 24.0667 7.48709 24.0667 8.83066C24.0667 10.0354 24.7618 11.0546 25.5026 12.2592C26.0585 13.2328 26.7079 14.4835 26.7079 16.2908C26.7079 17.5418 26.2266 18.9937 25.5955 21.0164L24.137 25.8881L18.8541 10.1742ZM16.8395 31.6473C15.4046 31.6473 14.0197 31.4369 12.7097 31.0517L17.0962 18.3067L21.5893 30.617C21.6189 30.6893 21.6552 30.7559 21.6939 30.8185C20.1745 31.3534 18.5418 31.6473 16.8395 31.6473ZM2.22145 17.028C2.22145 14.9087 2.67602 12.8968 3.48725 11.0789L10.4604 30.1842C5.58356 27.815 2.22145 22.8142 2.22145 17.028ZM16.8395 0.769398C7.87429 0.769398 0.580566 8.06295 0.580566 17.028C0.580566 25.9934 7.87429 33.2878 16.8395 33.2878C25.8046 33.2878 33.0987 25.9934 33.0987 17.028C33.0987 8.06295 25.8046 0.769398 16.8395 0.769398Z" fill="#3F3C3C"/>
</svg>
