<svg width="91" height="125" viewBox="0 0 91 125" fill="none" xmlns="http://www.w3.org/2000/svg">
<path fill-rule="evenodd" clip-rule="evenodd" d="M39.288 4.70255C39.4573 1.12707 41.746 -0.728575 44.9245 0.267145C46.2384 0.67449 47.086 1.57965 47.4676 2.98271C47.8916 4.61204 47.7645 6.24137 47.044 7.7349C46.2809 9.27371 45.0942 10.2242 43.3988 10.1789C41.746 10.1336 40.6019 9.09268 40.0086 7.50864C39.7318 6.85182 39.5886 6.14743 39.4504 5.46449C39.3978 5.20618 39.3461 4.95095 39.288 4.70255ZM7.28966 93.2296C7.28966 93.1392 7.28966 92.8676 7.33202 92.6414C7.58633 91.8716 7.6711 91.0573 7.6711 90.1971C7.6711 89.1112 8.5611 88.2964 9.62064 88.251C10.0868 88.251 10.5954 88.3418 10.9769 88.5226C12.3331 89.2015 13.6046 90.0613 14.5793 91.2835C16.5713 93.6824 15.6813 97.6195 12.884 98.7514C11.4007 99.3849 9.83254 98.9321 8.73064 97.6195C7.92536 96.624 7.28966 94.8137 7.28966 93.2296ZM24.5391 116.765C23.8609 117.489 23.6067 118.394 23.6067 118.982C23.6067 121.426 24.6662 123.463 26.192 124.413C28.0993 125.59 30.2608 124.956 31.3203 122.875C32.846 119.887 31.066 115.769 27.9721 115.045C26.7853 114.773 25.7681 115.045 25.0052 116.176C24.8781 116.402 24.7086 116.583 24.5391 116.765ZM85.9502 83.9059C85.9081 84.1174 85.8748 84.3338 85.8418 84.5497C85.7759 84.9825 85.7101 85.4148 85.5687 85.8071C84.6364 88.4771 81.7123 89.1561 79.8051 87.1196C78.8302 86.1236 78.4487 84.8116 78.2794 83.4082C78.2369 83.0008 78.1522 82.5484 78.0251 82.141C77.4317 80.512 78.0251 79.1086 79.5933 78.5654C81.5425 77.8414 84.1277 78.8824 85.1451 80.7831C85.6538 81.7336 85.9081 82.7746 85.9502 83.9059ZM0.0497267 26.3757C0.0315195 26.4793 0.0150507 26.5728 0 26.6533C0.0423615 28.5542 0.339029 29.9119 1.22908 30.9981C2.16144 32.1749 3.39052 32.718 4.8315 32.4464C6.27248 32.1749 7.20489 31.1792 7.6711 29.6856C8.51874 27.0154 7.16253 23.8019 4.49247 23.1683C4.4077 23.1381 4.32294 23.113 4.23817 23.0879C4.06863 23.0375 3.89909 22.9873 3.7296 22.8968C2.54288 22.3536 1.05954 22.8968 0.466206 24.5261C0.257143 25.1959 0.133992 25.8962 0.0497267 26.3757ZM72.6425 104.273C72.6425 106.128 71.7523 107.577 70.3112 108.075C68.9974 108.572 67.6415 108.12 66.6666 106.898C65.5645 105.449 65.0984 103.775 65.1409 101.965C65.183 100.652 65.8614 99.5657 66.582 98.5701C67.0481 97.9366 67.7686 97.7553 68.5312 97.8911C68.9553 97.982 69.3789 98.1627 69.7179 98.4343C71.244 99.5207 72.6425 102.282 72.6425 104.273ZM0.339075 58.923V59.3759C0.381437 61.4123 0.974772 63.2227 2.67006 64.3994C3.81437 65.2142 5.04345 65.3949 6.31489 64.7164C7.54397 64.0374 8.09494 62.8607 8.13731 61.4578C8.22207 59.0588 7.07776 57.294 5.21299 56.0263C5.04345 55.8905 4.87391 55.8002 4.66201 55.7547C2.50052 55.0308 0.466205 56.5241 0.339075 58.923ZM56.8338 105.902C56.8997 106.061 56.9527 106.226 57.0058 106.39C57.0886 106.648 57.1705 106.903 57.3004 107.124C57.8937 108.165 58.3599 109.206 58.402 110.473C58.4445 111.831 57.9784 112.872 56.8338 113.505C55.6896 114.139 54.5876 113.913 53.6127 113.099C52.4686 112.193 51.9178 110.881 51.6635 109.387C51.5505 108.723 51.475 108.059 51.3995 107.396V107.395C51.362 107.063 51.3245 106.732 51.2819 106.4C51.1973 105.766 51.3245 105.087 51.7906 104.725L51.8611 104.671C52.6031 104.098 53.3849 103.495 54.2061 103.232C55.7743 102.734 57.2153 104.182 56.8338 105.902ZM56.0712 75.5334C54.927 76.8908 54.2486 78.475 54.2912 80.0137C54.2486 81.5978 54.4604 82.5939 54.8845 83.4082C55.5625 84.6303 56.7491 85.2185 57.9784 85.0377C59.504 84.8116 60.9025 83.4536 61.1994 81.824C61.5384 79.9688 61.1148 78.2943 60.0548 76.8005C59.9281 76.6197 59.8119 76.4507 59.6957 76.2812L59.6948 76.2798L59.6939 76.2788C59.5777 76.1093 59.4615 75.9403 59.3348 75.7595C58.4871 74.447 57.0881 74.3566 56.0712 75.5334ZM28.2265 98.8872C30.9809 98.3889 33.2275 101.829 32.5491 104.68C31.9983 106.988 29.8368 108.12 27.8024 107.169C25.7681 106.219 24.4543 103.323 25.09 101.014C25.3867 99.7469 26.4039 98.5247 28.2265 98.8872ZM85.3995 59.4662C84.6789 60.6884 84.2974 62.0459 84.34 63.4942C84.34 64.5806 84.5518 65.5761 85.0605 66.4813C85.8231 67.8393 87.0523 68.5178 88.3661 68.2916C89.6374 68.1109 90.6969 67.0245 90.9092 65.4404C91.2903 62.9511 90.4426 60.7788 88.9169 58.9685C87.8574 57.7009 86.2471 58.0179 85.3995 59.4662ZM19.964 75.1152C20.0469 75.3736 20.1289 75.6286 20.2585 75.8499C20.8942 77.0266 21.1909 78.2488 20.979 79.6063C20.8094 80.7831 20.2161 81.6882 19.1142 82.0507C17.9698 82.4581 16.9951 82.0507 16.1898 81.1455C15.4693 80.2853 15.0879 79.2443 14.8336 78.1584C14.7065 77.6153 14.5369 77.0721 14.2827 76.5743C13.7317 75.3067 14.0283 74.13 15.0879 73.3606C15.2998 73.2248 15.5011 73.0665 15.7024 72.9083C15.9037 72.75 16.1051 72.5912 16.317 72.4554C17.1222 71.9122 17.9698 71.8219 18.8175 72.3196C19.6228 72.8179 19.9618 73.5872 19.7923 74.6282C19.8581 74.7865 19.9112 74.9516 19.964 75.1152ZM67.3871 9.63582C68.5312 9.00217 68.9553 7.91598 68.9974 6.73923C69.0399 4.74784 67.7686 2.48485 66.1158 1.12707C64.4204 -0.275949 62.3014 0.629207 62.0471 2.93743C61.9199 3.97843 61.9624 5.1099 62.1317 6.15085C62.3435 7.46335 62.9794 8.59487 64.0389 9.36428C65.0984 10.1337 66.243 10.3147 67.3871 9.63582ZM38.5675 83.9968C38.5675 83.6495 38.563 83.3026 38.5579 82.9558C38.5488 82.2617 38.5392 81.5676 38.5675 80.8739C38.6522 79.471 39.8814 78.5654 41.1952 79.0182C41.746 79.1994 42.2547 79.5159 42.6783 79.9233C43.6532 80.8739 44.3312 82.0052 44.8399 83.3178C45.2214 84.3133 45.306 85.3543 44.9245 86.3952C44.5009 87.7078 43.6532 88.5226 42.3819 88.7487C41.0681 88.9754 40.0506 88.4322 39.288 87.3004C38.6522 86.3049 38.4404 85.1735 38.5675 83.9968ZM78.9995 30.6814C80.5677 30.0025 81.5851 28.2826 81.5851 26.3817C81.5851 24.5261 80.6528 22.9873 79.2538 22.4894C77.7707 21.9011 76.0753 22.4894 75.0584 23.8472C73.9138 25.386 73.9563 28.2373 75.143 29.7309C76.0753 30.9076 77.601 31.2697 78.9995 30.6814ZM37.847 42.7655C37.847 43.5349 37.6773 44.3497 37.2537 45.0287C36.067 47.0197 33.6511 47.201 32.2526 45.3906C31.2352 44.0781 30.9388 42.494 30.9809 40.8194C30.9809 40.4462 31.0527 40.0726 31.1241 39.6994C31.1479 39.5748 31.1716 39.4502 31.1931 39.3257C31.5742 37.425 33.1424 36.6556 34.7952 37.5154C36.4906 38.3301 37.847 40.6836 37.847 42.7655ZM54.5135 25.705C54.5519 25.5687 54.5904 25.4321 54.6301 25.2955C54.503 24.0282 53.9943 23.0325 53.0199 22.1726C52.9572 22.1153 52.8904 22.0579 52.8232 21.9998C52.5715 21.7823 52.3058 21.5531 52.1722 21.2674C51.4517 19.9097 49.4594 19.6381 48.2306 21.3127C46.9168 23.123 46.8742 25.9291 48.1881 27.7848C49.7988 30.0477 52.5958 29.8667 53.9096 27.4227C54.1846 26.8719 54.3483 26.2912 54.5135 25.705ZM77.4738 48.6493C77.4317 50.2784 76.7959 51.7267 75.3974 52.6773C73.5323 53.9899 71.2015 53.1751 70.481 50.9574C69.5907 48.2873 70.5235 45.6622 73.4902 44.6662C74.6343 44.2593 75.6938 44.6662 76.499 45.6622C77.1774 46.477 77.4317 47.4726 77.4738 48.6493ZM57.1805 53.4232C57.2427 53.1702 57.305 52.9172 57.385 52.6773C57.3004 50.2335 54.7999 47.4726 52.5532 47.4726C51.1548 47.4271 50.0527 48.5135 50.1378 49.9164C50.1799 50.7766 50.265 51.6364 50.4343 52.4961C50.6886 53.8541 51.2819 55.0308 52.384 55.8002C53.9522 56.9315 55.944 56.4337 56.7917 54.6234C56.976 54.258 57.0785 53.8399 57.1805 53.4232ZM34.2019 18.5971C34.2019 20.1359 33.4819 21.4032 32.2947 21.9011C31.1081 22.3989 29.7521 22.0368 28.8198 20.9053C27.5482 19.3213 27.1667 17.4656 27.5482 15.429C27.7177 14.6596 28.0993 14.026 28.6501 13.5281C29.8368 12.5777 31.3624 12.8945 32.168 14.207C32.4219 14.6143 32.7188 15.0216 33.0152 15.4289C33.8208 16.4246 34.2019 17.4204 34.2019 18.5971ZM13.0836 36.3357C13.0405 36.514 13.0031 36.6693 12.9688 36.7914C13.0536 38.783 13.435 40.1404 14.5369 41.136C16.1898 42.6752 18.5208 42.0866 19.3261 39.9597C19.8347 38.5563 19.6651 37.2438 18.8175 36.067C18.4785 35.5692 18.2242 35.1169 18.097 34.5283C17.8003 33.2611 16.6136 32.5822 15.3846 32.9443C14.5793 33.1706 13.9436 33.759 13.6046 34.5737C13.357 35.2014 13.1999 35.8531 13.0836 36.3357ZM39.0762 60.2356C39.0762 61.0953 38.864 61.9555 38.3132 62.7703C37.1265 64.3994 35.0075 64.5352 33.5665 63.0414C32.2101 61.6385 31.8286 59.1043 32.6763 57.294C33.2275 56.1172 34.2019 55.574 35.4311 55.7547C35.4737 55.7547 35.5052 55.7665 35.5373 55.7777C35.5688 55.789 35.6008 55.8002 35.6429 55.8002C37.9742 56.1621 39.0762 57.5651 39.0762 60.2356ZM64.7169 65.1238V67.9751C64.7169 68.8348 64.9712 69.9661 65.8189 70.8713C67.2174 72.3651 69.4215 71.9122 70.1841 70.0116C71.0318 67.9297 69.5061 63.992 67.5568 63.1323C66.1158 62.4987 64.7169 63.4942 64.7169 65.1238Z" fill="#AAC4E6"/>
</svg>
